<svg width="16" height="20" viewBox="0 0 16 20" fill="none" xmlns="http://www.w3.org/2000/svg">
<path d="M6.4 19.2222C5.51684 19.2179 4.80073 18.5054 4.792 17.6222H7.992C7.99369 17.8361 7.9529 18.0482 7.872 18.2462C7.66212 18.7278 7.23345 19.0791 6.72 19.1902H6.716H6.704H6.6896H6.6824C6.58945 19.2096 6.49492 19.2203 6.4 19.2222ZM12.8 16.8222H0V15.2222L1.6 14.4222V10.0222C1.55785 8.89352 1.81275 7.77353 2.3392 6.77423C2.86323 5.84744 3.75896 5.18933 4.8 4.96623V3.22223H8V4.96623C10.0632 5.45743 11.2 7.25263 11.2 10.0222V14.4222L12.8 15.2222V16.8222Z" fill="#B0C3CC"/>
<circle cx="11" cy="5" r="3.6" fill="#EC5252" stroke="white" stroke-width="1.2"/>
</svg>
