<svg width="110" height="110" viewBox="0 0 110 110" fill="none" xmlns="http://www.w3.org/2000/svg">
<rect width="110" height="110" rx="55" fill="#E7E0EC"/>
<path fill-rule="evenodd" clip-rule="evenodd" d="M71.5007 44C71.5007 53.1127 64.1134 60.5 55.0007 60.5C45.888 60.5 38.5007 53.1127 38.5007 44C38.5007 34.8873 45.888 27.5 55.0007 27.5C64.1134 27.5 71.5007 34.8873 71.5007 44ZM66.0007 44C66.0007 50.0751 61.0758 55 55.0007 55C48.9255 55 44.0007 50.0751 44.0007 44C44.0007 37.9249 48.9255 33 55.0007 33C61.0758 33 66.0007 37.9249 66.0007 44Z" fill="#21005D"/>
<path d="M55.0007 68.75C37.1961 68.75 22.0262 79.2781 16.2476 94.0281C17.6553 95.426 19.1382 96.7482 20.6897 97.9882C24.9928 84.4462 38.4916 74.25 55.0007 74.25C71.5097 74.25 85.0086 84.4462 89.3117 97.9882C90.8632 96.7482 92.3461 95.426 93.7538 94.0282C87.9752 79.2781 72.8053 68.75 55.0007 68.75Z" fill="#21005D"/>
</svg>
