<svg width="678" height="142" viewBox="0 0 678 142" fill="none" xmlns="http://www.w3.org/2000/svg">
<path d="M0 41H678" stroke="#E2E7E7" stroke-dasharray="3 6"/>
<path d="M0 1H678" stroke="#E2E7E7" stroke-dasharray="3 6"/>
<path d="M0 81H678" stroke="#E2E7E7" stroke-dasharray="3 6"/>
<path d="M0 121H678" stroke="#E2E7E7"/>
<path opacity="0.5" d="M14.7167 135.941C14.7167 134.68 14.922 133.697 15.3327 132.993C15.7433 132.282 16.462 131.926 17.4887 131.926C18.508 131.926 19.223 132.282 19.6337 132.993C20.0443 133.697 20.2497 134.68 20.2497 135.941C20.2497 137.224 20.0443 138.222 19.6337 138.933C19.223 139.644 18.508 140 17.4887 140C16.462 140 15.7433 139.644 15.3327 138.933C14.922 138.222 14.7167 137.224 14.7167 135.941ZM19.2597 135.941C19.2597 135.303 19.2157 134.764 19.1277 134.324C19.047 133.877 18.8747 133.517 18.6107 133.246C18.354 132.975 17.98 132.839 17.4887 132.839C16.99 132.839 16.6087 132.975 16.3447 133.246C16.088 133.517 15.9157 133.877 15.8277 134.324C15.747 134.764 15.7067 135.303 15.7067 135.941C15.7067 136.601 15.747 137.155 15.8277 137.602C15.9157 138.049 16.088 138.409 16.3447 138.68C16.6087 138.951 16.99 139.087 17.4887 139.087C17.98 139.087 18.354 138.951 18.6107 138.68C18.8747 138.409 19.047 138.049 19.1277 137.602C19.2157 137.155 19.2597 136.601 19.2597 135.941ZM21.8599 132.96V132.047H23.9279V140H22.9159V132.96H21.8599Z" fill="#737B8B"/>
<path d="M8 31H16V121H8V31Z" fill="#5A6ACF"/>
<path d="M22 71H30V121H22V71Z" fill="#E6E8EC"/>
<path opacity="0.5" d="M360.976 135.941C360.976 134.68 361.181 133.697 361.592 132.993C362.003 132.282 362.721 131.926 363.748 131.926C364.767 131.926 365.482 132.282 365.893 132.993C366.304 133.697 366.509 134.68 366.509 135.941C366.509 137.224 366.304 138.222 365.893 138.933C365.482 139.644 364.767 140 363.748 140C362.721 140 362.003 139.644 361.592 138.933C361.181 138.222 360.976 137.224 360.976 135.941ZM365.519 135.941C365.519 135.303 365.475 134.764 365.387 134.324C365.306 133.877 365.134 133.517 364.87 133.246C364.613 132.975 364.239 132.839 363.748 132.839C363.249 132.839 362.868 132.975 362.604 133.246C362.347 133.517 362.175 133.877 362.087 134.324C362.006 134.764 361.966 135.303 361.966 135.941C361.966 136.601 362.006 137.155 362.087 137.602C362.175 138.049 362.347 138.409 362.604 138.68C362.868 138.951 363.249 139.087 363.748 139.087C364.239 139.087 364.613 138.951 364.87 138.68C365.134 138.409 365.306 138.049 365.387 137.602C365.475 137.155 365.519 136.601 365.519 135.941ZM373.278 132.828L370.22 140H369.208L372.31 132.927H368.064V132.069H373.278V132.828Z" fill="#737B8B"/>
<path d="M356 31H364V121H356V31Z" fill="#5A6ACF"/>
<path d="M370 71H378V121H370V71Z" fill="#E6E8EC"/>
<path opacity="0.5" d="M70.8148 135.941C70.8148 134.68 71.0201 133.697 71.4308 132.993C71.8415 132.282 72.5601 131.926 73.5868 131.926C74.6061 131.926 75.3211 132.282 75.7318 132.993C76.1425 133.697 76.3478 134.68 76.3478 135.941C76.3478 137.224 76.1425 138.222 75.7318 138.933C75.3211 139.644 74.6061 140 73.5868 140C72.5601 140 71.8415 139.644 71.4308 138.933C71.0201 138.222 70.8148 137.224 70.8148 135.941ZM75.3578 135.941C75.3578 135.303 75.3138 134.764 75.2258 134.324C75.1451 133.877 74.9728 133.517 74.7088 133.246C74.4521 132.975 74.0781 132.839 73.5868 132.839C73.0881 132.839 72.7068 132.975 72.4428 133.246C72.1861 133.517 72.0138 133.877 71.9258 134.324C71.8451 134.764 71.8048 135.303 71.8048 135.941C71.8048 136.601 71.8451 137.155 71.9258 137.602C72.0138 138.049 72.1861 138.409 72.4428 138.68C72.7068 138.951 73.0881 139.087 73.5868 139.087C74.0781 139.087 74.4521 138.951 74.7088 138.68C74.9728 138.409 75.1451 138.049 75.2258 137.602C75.3138 137.155 75.3578 136.601 75.3578 135.941ZM78.101 139.197C79.0324 138.449 79.762 137.837 80.29 137.36C80.818 136.876 81.2617 136.374 81.621 135.853C81.9877 135.325 82.171 134.808 82.171 134.302C82.171 133.825 82.0537 133.451 81.819 133.18C81.5917 132.901 81.2214 132.762 80.708 132.762C80.2094 132.762 79.8207 132.92 79.542 133.235C79.2707 133.543 79.124 133.957 79.102 134.478H78.134C78.1634 133.657 78.4127 133.022 78.882 132.575C79.3514 132.128 79.9564 131.904 80.697 131.904C81.4524 131.904 82.05 132.113 82.49 132.531C82.9374 132.949 83.161 133.525 83.161 134.258C83.161 134.867 82.9777 135.461 82.611 136.04C82.2517 136.612 81.841 137.118 81.379 137.558C80.917 137.991 80.3267 138.497 79.608 139.076H83.392V139.912H78.101V139.197Z" fill="#737B8B"/>
<path d="M66 51H74V121H66V51Z" fill="#5A6ACF"/>
<path d="M80 31H88V121H80V31Z" fill="#E6E8EC"/>
<path opacity="0.5" d="M419.009 135.941C419.009 134.68 419.214 133.697 419.625 132.993C420.035 132.282 420.754 131.926 421.781 131.926C422.8 131.926 423.515 132.282 423.926 132.993C424.336 133.697 424.542 134.68 424.542 135.941C424.542 137.224 424.336 138.222 423.926 138.933C423.515 139.644 422.8 140 421.781 140C420.754 140 420.035 139.644 419.625 138.933C419.214 138.222 419.009 137.224 419.009 135.941ZM423.552 135.941C423.552 135.303 423.508 134.764 423.42 134.324C423.339 133.877 423.167 133.517 422.903 133.246C422.646 132.975 422.272 132.839 421.781 132.839C421.282 132.839 420.901 132.975 420.637 133.246C420.38 133.517 420.208 133.877 420.12 134.324C420.039 134.764 419.999 135.303 419.999 135.941C419.999 136.601 420.039 137.155 420.12 137.602C420.208 138.049 420.38 138.409 420.637 138.68C420.901 138.951 421.282 139.087 421.781 139.087C422.272 139.087 422.646 138.951 422.903 138.68C423.167 138.409 423.339 138.049 423.42 137.602C423.508 137.155 423.552 136.601 423.552 135.941ZM427.868 135.864C427.457 135.703 427.142 135.468 426.922 135.16C426.702 134.852 426.592 134.478 426.592 134.038C426.592 133.642 426.691 133.286 426.889 132.971C427.087 132.648 427.38 132.395 427.769 132.212C428.165 132.021 428.642 131.926 429.199 131.926C429.756 131.926 430.229 132.021 430.618 132.212C431.014 132.395 431.311 132.648 431.509 132.971C431.714 133.286 431.817 133.642 431.817 134.038C431.817 134.463 431.703 134.837 431.476 135.16C431.249 135.475 430.937 135.71 430.541 135.864C430.996 136.003 431.355 136.249 431.619 136.601C431.89 136.946 432.026 137.364 432.026 137.855C432.026 138.332 431.909 138.75 431.674 139.109C431.439 139.461 431.106 139.736 430.673 139.934C430.248 140.125 429.756 140.22 429.199 140.22C428.642 140.22 428.15 140.125 427.725 139.934C427.307 139.736 426.981 139.461 426.746 139.109C426.511 138.75 426.394 138.332 426.394 137.855C426.394 137.364 426.526 136.942 426.79 136.59C427.054 136.238 427.413 135.996 427.868 135.864ZM430.849 134.159C430.849 133.712 430.702 133.367 430.409 133.125C430.116 132.883 429.712 132.762 429.199 132.762C428.693 132.762 428.293 132.883 428 133.125C427.707 133.367 427.56 133.715 427.56 134.17C427.56 134.581 427.71 134.911 428.011 135.16C428.319 135.409 428.715 135.534 429.199 135.534C429.69 135.534 430.086 135.409 430.387 135.16C430.695 134.903 430.849 134.57 430.849 134.159ZM429.199 136.304C428.656 136.304 428.213 136.432 427.868 136.689C427.523 136.938 427.351 137.316 427.351 137.822C427.351 138.291 427.516 138.669 427.846 138.955C428.183 139.241 428.634 139.384 429.199 139.384C429.764 139.384 430.211 139.241 430.541 138.955C430.871 138.669 431.036 138.291 431.036 137.822C431.036 137.331 430.867 136.957 430.53 136.7C430.193 136.436 429.749 136.304 429.199 136.304Z" fill="#737B8B"/>
<path d="M414 51H422V121H414V51Z" fill="#5A6ACF"/>
<path d="M428 31H436V121H428V31Z" fill="#E6E8EC"/>
<path opacity="0.5" d="M128.74 135.941C128.74 134.68 128.945 133.697 129.356 132.993C129.766 132.282 130.485 131.926 131.512 131.926C132.531 131.926 133.246 132.282 133.657 132.993C134.067 133.697 134.273 134.68 134.273 135.941C134.273 137.224 134.067 138.222 133.657 138.933C133.246 139.644 132.531 140 131.512 140C130.485 140 129.766 139.644 129.356 138.933C128.945 138.222 128.74 137.224 128.74 135.941ZM133.283 135.941C133.283 135.303 133.239 134.764 133.151 134.324C133.07 133.877 132.898 133.517 132.634 133.246C132.377 132.975 132.003 132.839 131.512 132.839C131.013 132.839 130.632 132.975 130.368 133.246C130.111 133.517 129.939 133.877 129.851 134.324C129.77 134.764 129.73 135.303 129.73 135.941C129.73 136.601 129.77 137.155 129.851 137.602C129.939 138.049 130.111 138.409 130.368 138.68C130.632 138.951 131.013 139.087 131.512 139.087C132.003 139.087 132.377 138.951 132.634 138.68C132.898 138.409 133.07 138.049 133.151 137.602C133.239 137.155 133.283 136.601 133.283 135.941ZM136.125 134.049C136.176 133.374 136.437 132.846 136.906 132.465C137.375 132.084 137.984 131.893 138.732 131.893C139.231 131.893 139.66 131.985 140.019 132.168C140.386 132.344 140.661 132.586 140.844 132.894C141.035 133.202 141.13 133.55 141.13 133.939C141.13 134.394 140.998 134.786 140.734 135.116C140.477 135.446 140.14 135.659 139.722 135.754V135.809C140.199 135.926 140.576 136.157 140.855 136.502C141.134 136.847 141.273 137.298 141.273 137.855C141.273 138.273 141.178 138.651 140.987 138.988C140.796 139.318 140.51 139.578 140.129 139.769C139.748 139.96 139.289 140.055 138.754 140.055C137.977 140.055 137.339 139.853 136.84 139.45C136.341 139.039 136.063 138.46 136.004 137.712H136.972C137.023 138.152 137.203 138.511 137.511 138.79C137.819 139.069 138.23 139.208 138.743 139.208C139.256 139.208 139.645 139.076 139.909 138.812C140.18 138.541 140.316 138.192 140.316 137.767C140.316 137.217 140.133 136.821 139.766 136.579C139.399 136.337 138.846 136.216 138.105 136.216H137.852V135.38H138.116C138.791 135.373 139.3 135.263 139.645 135.05C139.99 134.83 140.162 134.493 140.162 134.038C140.162 133.649 140.034 133.338 139.777 133.103C139.528 132.868 139.168 132.751 138.699 132.751C138.244 132.751 137.878 132.868 137.599 133.103C137.32 133.338 137.155 133.653 137.104 134.049H136.125Z" fill="#737B8B"/>
<path d="M124 41H132V121H124V41Z" fill="#5A6ACF"/>
<path d="M138 81H146V121H138V81Z" fill="#E6E8EC"/>
<path opacity="0.5" d="M477.014 135.941C477.014 134.68 477.219 133.697 477.63 132.993C478.041 132.282 478.759 131.926 479.786 131.926C480.805 131.926 481.52 132.282 481.931 132.993C482.342 133.697 482.547 134.68 482.547 135.941C482.547 137.224 482.342 138.222 481.931 138.933C481.52 139.644 480.805 140 479.786 140C478.759 140 478.041 139.644 477.63 138.933C477.219 138.222 477.014 137.224 477.014 135.941ZM481.557 135.941C481.557 135.303 481.513 134.764 481.425 134.324C481.344 133.877 481.172 133.517 480.908 133.246C480.651 132.975 480.277 132.839 479.786 132.839C479.287 132.839 478.906 132.975 478.642 133.246C478.385 133.517 478.213 133.877 478.125 134.324C478.044 134.764 478.004 135.303 478.004 135.941C478.004 136.601 478.044 137.155 478.125 137.602C478.213 138.049 478.385 138.409 478.642 138.68C478.906 138.951 479.287 139.087 479.786 139.087C480.277 139.087 480.651 138.951 480.908 138.68C481.172 138.409 481.344 138.049 481.425 137.602C481.513 137.155 481.557 136.601 481.557 135.941ZM485.708 137.866C485.782 138.284 485.95 138.607 486.214 138.834C486.486 139.061 486.849 139.175 487.303 139.175C487.912 139.175 488.359 138.937 488.645 138.46C488.939 137.983 489.078 137.18 489.063 136.051C488.909 136.381 488.653 136.641 488.293 136.832C487.934 137.015 487.534 137.107 487.094 137.107C486.603 137.107 486.163 137.008 485.774 136.81C485.393 136.605 485.092 136.308 484.872 135.919C484.652 135.53 484.542 135.061 484.542 134.511C484.542 133.726 484.77 133.096 485.224 132.619C485.679 132.135 486.324 131.893 487.16 131.893C488.187 131.893 488.906 132.227 489.316 132.894C489.734 133.561 489.943 134.555 489.943 135.875C489.943 136.799 489.859 137.562 489.69 138.163C489.529 138.764 489.25 139.223 488.854 139.538C488.466 139.853 487.93 140.011 487.248 140.011C486.5 140.011 485.917 139.809 485.499 139.406C485.081 139.003 484.843 138.489 484.784 137.866H485.708ZM487.259 136.26C487.751 136.26 488.154 136.11 488.469 135.809C488.785 135.501 488.942 135.087 488.942 134.566C488.942 134.016 488.788 133.572 488.48 133.235C488.172 132.898 487.74 132.729 487.182 132.729C486.669 132.729 486.258 132.89 485.95 133.213C485.65 133.536 485.499 133.961 485.499 134.489C485.499 135.024 485.65 135.453 485.95 135.776C486.251 136.099 486.687 136.26 487.259 136.26Z" fill="#737B8B"/>
<path d="M472 41H480V121H472V41Z" fill="#5A6ACF"/>
<path d="M486 81H494V121H486V81Z" fill="#E6E8EC"/>
<path opacity="0.5" d="M187.019 135.941C187.019 134.68 187.225 133.697 187.635 132.993C188.046 132.282 188.765 131.926 189.791 131.926C190.811 131.926 191.526 132.282 191.936 132.993C192.347 133.697 192.552 134.68 192.552 135.941C192.552 137.224 192.347 138.222 191.936 138.933C191.526 139.644 190.811 140 189.791 140C188.765 140 188.046 139.644 187.635 138.933C187.225 138.222 187.019 137.224 187.019 135.941ZM191.562 135.941C191.562 135.303 191.518 134.764 191.43 134.324C191.35 133.877 191.177 133.517 190.913 133.246C190.657 132.975 190.283 132.839 189.791 132.839C189.293 132.839 188.911 132.975 188.647 133.246C188.391 133.517 188.218 133.877 188.13 134.324C188.05 134.764 188.009 135.303 188.009 135.941C188.009 136.601 188.05 137.155 188.13 137.602C188.218 138.049 188.391 138.409 188.647 138.68C188.911 138.951 189.293 139.087 189.791 139.087C190.283 139.087 190.657 138.951 190.913 138.68C191.177 138.409 191.35 138.049 191.43 137.602C191.518 137.155 191.562 136.601 191.562 135.941ZM194.185 138.229V137.47L198.046 132.124H199.245V137.36H200.345V138.229H199.245V140H198.255V138.229H194.185ZM198.299 133.169L195.34 137.36H198.299V133.169Z" fill="#737B8B"/>
<path d="M182 61H190V121H182V61Z" fill="#5A6ACF"/>
<path d="M196 41H204V121H196V41Z" fill="#E6E8EC"/>
<path opacity="0.5" d="M536.453 132.96V132.047H538.521V140H537.509V132.96H536.453ZM540.74 135.941C540.74 134.68 540.945 133.697 541.356 132.993C541.767 132.282 542.485 131.926 543.512 131.926C544.531 131.926 545.246 132.282 545.657 132.993C546.068 133.697 546.273 134.68 546.273 135.941C546.273 137.224 546.068 138.222 545.657 138.933C545.246 139.644 544.531 140 543.512 140C542.485 140 541.767 139.644 541.356 138.933C540.945 138.222 540.74 137.224 540.74 135.941ZM545.283 135.941C545.283 135.303 545.239 134.764 545.151 134.324C545.07 133.877 544.898 133.517 544.634 133.246C544.377 132.975 544.003 132.839 543.512 132.839C543.013 132.839 542.632 132.975 542.368 133.246C542.111 133.517 541.939 133.877 541.851 134.324C541.77 134.764 541.73 135.303 541.73 135.941C541.73 136.601 541.77 137.155 541.851 137.602C541.939 138.049 542.111 138.409 542.368 138.68C542.632 138.951 543.013 139.087 543.512 139.087C544.003 139.087 544.377 138.951 544.634 138.68C544.898 138.409 545.07 138.049 545.151 137.602C545.239 137.155 545.283 136.601 545.283 135.941Z" fill="#737B8B"/>
<path d="M530 61H538V121H530V61Z" fill="#5A6ACF"/>
<path d="M544 41H552V121H544V41Z" fill="#E6E8EC"/>
<path opacity="0.5" d="M245.025 135.941C245.025 134.68 245.23 133.697 245.641 132.993C246.051 132.282 246.77 131.926 247.797 131.926C248.816 131.926 249.531 132.282 249.942 132.993C250.352 133.697 250.558 134.68 250.558 135.941C250.558 137.224 250.352 138.222 249.942 138.933C249.531 139.644 248.816 140 247.797 140C246.77 140 246.051 139.644 245.641 138.933C245.23 138.222 245.025 137.224 245.025 135.941ZM249.568 135.941C249.568 135.303 249.524 134.764 249.436 134.324C249.355 133.877 249.183 133.517 248.919 133.246C248.662 132.975 248.288 132.839 247.797 132.839C247.298 132.839 246.917 132.975 246.653 133.246C246.396 133.517 246.224 133.877 246.136 134.324C246.055 134.764 246.015 135.303 246.015 135.941C246.015 136.601 246.055 137.155 246.136 137.602C246.224 138.049 246.396 138.409 246.653 138.68C246.917 138.951 247.298 139.087 247.797 139.087C248.288 139.087 248.662 138.951 248.919 138.68C249.183 138.409 249.355 138.049 249.436 137.602C249.524 137.155 249.568 136.601 249.568 135.941ZM257.503 132.916H253.642V135.424C253.811 135.189 254.06 134.999 254.39 134.852C254.72 134.698 255.076 134.621 255.457 134.621C256.066 134.621 256.561 134.749 256.942 135.006C257.323 135.255 257.595 135.582 257.756 135.985C257.925 136.381 258.009 136.803 258.009 137.25C258.009 137.778 257.91 138.251 257.712 138.669C257.514 139.087 257.21 139.417 256.799 139.659C256.396 139.901 255.893 140.022 255.292 140.022C254.522 140.022 253.899 139.824 253.422 139.428C252.945 139.032 252.656 138.504 252.553 137.844H253.532C253.627 138.262 253.829 138.588 254.137 138.823C254.445 139.058 254.834 139.175 255.303 139.175C255.882 139.175 256.319 139.003 256.612 138.658C256.905 138.306 257.052 137.844 257.052 137.272C257.052 136.7 256.905 136.26 256.612 135.952C256.319 135.637 255.886 135.479 255.314 135.479C254.925 135.479 254.584 135.574 254.291 135.765C254.005 135.948 253.796 136.201 253.664 136.524H252.718V132.036H257.503V132.916Z" fill="#737B8B"/>
<path d="M240 21H248V121H240V21Z" fill="#5A6ACF"/>
<path d="M254 51H262V121H254V51Z" fill="#E6E8EC"/>
<path opacity="0.5" d="M595.645 132.96V132.047H597.713V140H596.701V132.96H595.645ZM599.668 132.96V132.047H601.736V140H600.724V132.96H599.668Z" fill="#737B8B"/>
<path d="M588 21H596V121H588V21Z" fill="#5A6ACF"/>
<path d="M602 51H610V121H602V51Z" fill="#E6E8EC"/>
<path opacity="0.5" d="M302.987 135.941C302.987 134.68 303.193 133.697 303.603 132.993C304.014 132.282 304.733 131.926 305.759 131.926C306.779 131.926 307.494 132.282 307.904 132.993C308.315 133.697 308.52 134.68 308.52 135.941C308.52 137.224 308.315 138.222 307.904 138.933C307.494 139.644 306.779 140 305.759 140C304.733 140 304.014 139.644 303.603 138.933C303.193 138.222 302.987 137.224 302.987 135.941ZM307.53 135.941C307.53 135.303 307.486 134.764 307.398 134.324C307.318 133.877 307.145 133.517 306.881 133.246C306.625 132.975 306.251 132.839 305.759 132.839C305.261 132.839 304.879 132.975 304.615 133.246C304.359 133.517 304.186 133.877 304.098 134.324C304.018 134.764 303.977 135.303 303.977 135.941C303.977 136.601 304.018 137.155 304.098 137.602C304.186 138.049 304.359 138.409 304.615 138.68C304.879 138.951 305.261 139.087 305.759 139.087C306.251 139.087 306.625 138.951 306.881 138.68C307.145 138.409 307.318 138.049 307.398 137.602C307.486 137.155 307.53 136.601 307.53 135.941ZM314.827 133.939C314.666 133.125 314.164 132.718 313.32 132.718C312.668 132.718 312.18 132.971 311.857 133.477C311.535 133.976 311.377 134.801 311.384 135.952C311.553 135.571 311.832 135.274 312.22 135.061C312.616 134.841 313.056 134.731 313.54 134.731C314.296 134.731 314.897 134.966 315.344 135.435C315.799 135.904 316.026 136.553 316.026 137.382C316.026 137.881 315.927 138.328 315.729 138.724C315.539 139.12 315.245 139.435 314.849 139.67C314.461 139.905 313.988 140.022 313.43 140.022C312.675 140.022 312.085 139.853 311.659 139.516C311.234 139.179 310.937 138.713 310.768 138.119C310.6 137.525 310.515 136.792 310.515 135.919C310.515 133.228 311.454 131.882 313.331 131.882C314.05 131.882 314.615 132.076 315.025 132.465C315.436 132.854 315.678 133.345 315.751 133.939H314.827ZM313.331 135.578C313.016 135.578 312.719 135.644 312.44 135.776C312.162 135.901 311.934 136.095 311.758 136.359C311.59 136.616 311.505 136.931 311.505 137.305C311.505 137.862 311.667 138.317 311.989 138.669C312.312 139.014 312.774 139.186 313.375 139.186C313.889 139.186 314.296 139.028 314.596 138.713C314.904 138.39 315.058 137.958 315.058 137.415C315.058 136.843 314.912 136.396 314.618 136.073C314.325 135.743 313.896 135.578 313.331 135.578Z" fill="#737B8B"/>
<path d="M298 11H306V121H298V11Z" fill="#5A6ACF"/>
<path d="M312 71H320V121H312V71Z" fill="#E6E8EC"/>
<path opacity="0.5" d="M652.743 132.96V132.047H654.811V140H653.799V132.96H652.743ZM656.909 139.197C657.84 138.449 658.57 137.837 659.098 137.36C659.626 136.876 660.07 136.374 660.429 135.853C660.796 135.325 660.979 134.808 660.979 134.302C660.979 133.825 660.862 133.451 660.627 133.18C660.4 132.901 660.029 132.762 659.516 132.762C659.017 132.762 658.629 132.92 658.35 133.235C658.079 133.543 657.932 133.957 657.91 134.478H656.942C656.971 133.657 657.221 133.022 657.69 132.575C658.159 132.128 658.764 131.904 659.505 131.904C660.26 131.904 660.858 132.113 661.298 132.531C661.745 132.949 661.969 133.525 661.969 134.258C661.969 134.867 661.786 135.461 661.419 136.04C661.06 136.612 660.649 137.118 660.187 137.558C659.725 137.991 659.135 138.497 658.416 139.076H662.2V139.912H656.909V139.197Z" fill="#737B8B"/>
<path d="M646 11H654V121H646V11Z" fill="#5A6ACF"/>
<path d="M660 71H668V121H660V71Z" fill="#E6E8EC"/>
</svg>
