<svg width="312" height="142" viewBox="0 0 312 142" fill="none" xmlns="http://www.w3.org/2000/svg">
<path d="M0 41H312" stroke="#E2E7E7" stroke-dasharray="3 6"/>
<path d="M0 1H312" stroke="#E2E7E7" stroke-dasharray="3 6"/>
<path d="M0 81H312" stroke="#E2E7E7" stroke-dasharray="3 6"/>
<path d="M0 121H312" stroke="#E2E7E7"/>
<path opacity="0.5" d="M14.7167 135.941C14.7167 134.68 14.922 133.697 15.3327 132.993C15.7433 132.282 16.462 131.926 17.4887 131.926C18.508 131.926 19.223 132.282 19.6337 132.993C20.0443 133.697 20.2497 134.68 20.2497 135.941C20.2497 137.224 20.0443 138.222 19.6337 138.933C19.223 139.644 18.508 140 17.4887 140C16.462 140 15.7433 139.644 15.3327 138.933C14.922 138.222 14.7167 137.224 14.7167 135.941ZM19.2597 135.941C19.2597 135.303 19.2157 134.764 19.1277 134.324C19.047 133.877 18.8747 133.517 18.6107 133.246C18.354 132.975 17.98 132.839 17.4887 132.839C16.99 132.839 16.6087 132.975 16.3447 133.246C16.088 133.517 15.9157 133.877 15.8277 134.324C15.747 134.764 15.7067 135.303 15.7067 135.941C15.7067 136.601 15.747 137.155 15.8277 137.602C15.9157 138.049 16.088 138.409 16.3447 138.68C16.6087 138.951 16.99 139.087 17.4887 139.087C17.98 139.087 18.354 138.951 18.6107 138.68C18.8747 138.409 19.047 138.049 19.1277 137.602C19.2157 137.155 19.2597 136.601 19.2597 135.941ZM21.8599 132.96V132.047H23.9279V140H22.9159V132.96H21.8599Z" fill="#737B8B"/>
<path opacity="0.5" d="M67.8148 135.941C67.8148 134.68 68.0201 133.697 68.4308 132.993C68.8415 132.282 69.5601 131.926 70.5868 131.926C71.6061 131.926 72.3211 132.282 72.7318 132.993C73.1425 133.697 73.3478 134.68 73.3478 135.941C73.3478 137.224 73.1425 138.222 72.7318 138.933C72.3211 139.644 71.6061 140 70.5868 140C69.5601 140 68.8415 139.644 68.4308 138.933C68.0201 138.222 67.8148 137.224 67.8148 135.941ZM72.3578 135.941C72.3578 135.303 72.3138 134.764 72.2258 134.324C72.1451 133.877 71.9728 133.517 71.7088 133.246C71.4521 132.975 71.0781 132.839 70.5868 132.839C70.0881 132.839 69.7068 132.975 69.4428 133.246C69.1861 133.517 69.0138 133.877 68.9258 134.324C68.8451 134.764 68.8048 135.303 68.8048 135.941C68.8048 136.601 68.8451 137.155 68.9258 137.602C69.0138 138.049 69.1861 138.409 69.4428 138.68C69.7068 138.951 70.0881 139.087 70.5868 139.087C71.0781 139.087 71.4521 138.951 71.7088 138.68C71.9728 138.409 72.1451 138.049 72.2258 137.602C72.3138 137.155 72.3578 136.601 72.3578 135.941ZM75.101 139.197C76.0324 138.449 76.762 137.837 77.29 137.36C77.818 136.876 78.2617 136.374 78.621 135.853C78.9877 135.325 79.171 134.808 79.171 134.302C79.171 133.825 79.0537 133.451 78.819 133.18C78.5917 132.901 78.2214 132.762 77.708 132.762C77.2094 132.762 76.8207 132.92 76.542 133.235C76.2707 133.543 76.124 133.957 76.102 134.478H75.134C75.1634 133.657 75.4127 133.022 75.882 132.575C76.3514 132.128 76.9564 131.904 77.697 131.904C78.4524 131.904 79.05 132.113 79.49 132.531C79.9374 132.949 80.161 133.525 80.161 134.258C80.161 134.867 79.9777 135.461 79.611 136.04C79.2517 136.612 78.841 137.118 78.379 137.558C77.917 137.991 77.3267 138.497 76.608 139.076H80.392V139.912H75.101V139.197Z" fill="#737B8B"/>
<path opacity="0.5" d="M122.74 135.941C122.74 134.68 122.945 133.697 123.356 132.993C123.766 132.282 124.485 131.926 125.512 131.926C126.531 131.926 127.246 132.282 127.657 132.993C128.067 133.697 128.273 134.68 128.273 135.941C128.273 137.224 128.067 138.222 127.657 138.933C127.246 139.644 126.531 140 125.512 140C124.485 140 123.766 139.644 123.356 138.933C122.945 138.222 122.74 137.224 122.74 135.941ZM127.283 135.941C127.283 135.303 127.239 134.764 127.151 134.324C127.07 133.877 126.898 133.517 126.634 133.246C126.377 132.975 126.003 132.839 125.512 132.839C125.013 132.839 124.632 132.975 124.368 133.246C124.111 133.517 123.939 133.877 123.851 134.324C123.77 134.764 123.73 135.303 123.73 135.941C123.73 136.601 123.77 137.155 123.851 137.602C123.939 138.049 124.111 138.409 124.368 138.68C124.632 138.951 125.013 139.087 125.512 139.087C126.003 139.087 126.377 138.951 126.634 138.68C126.898 138.409 127.07 138.049 127.151 137.602C127.239 137.155 127.283 136.601 127.283 135.941ZM130.125 134.049C130.176 133.374 130.437 132.846 130.906 132.465C131.375 132.084 131.984 131.893 132.732 131.893C133.231 131.893 133.66 131.985 134.019 132.168C134.386 132.344 134.661 132.586 134.844 132.894C135.035 133.202 135.13 133.55 135.13 133.939C135.13 134.394 134.998 134.786 134.734 135.116C134.477 135.446 134.14 135.659 133.722 135.754V135.809C134.199 135.926 134.576 136.157 134.855 136.502C135.134 136.847 135.273 137.298 135.273 137.855C135.273 138.273 135.178 138.651 134.987 138.988C134.796 139.318 134.51 139.578 134.129 139.769C133.748 139.96 133.289 140.055 132.754 140.055C131.977 140.055 131.339 139.853 130.84 139.45C130.341 139.039 130.063 138.46 130.004 137.712H130.972C131.023 138.152 131.203 138.511 131.511 138.79C131.819 139.069 132.23 139.208 132.743 139.208C133.256 139.208 133.645 139.076 133.909 138.812C134.18 138.541 134.316 138.192 134.316 137.767C134.316 137.217 134.133 136.821 133.766 136.579C133.399 136.337 132.846 136.216 132.105 136.216H131.852V135.38H132.116C132.791 135.373 133.3 135.263 133.645 135.05C133.99 134.83 134.162 134.493 134.162 134.038C134.162 133.649 134.034 133.338 133.777 133.103C133.528 132.868 133.168 132.751 132.699 132.751C132.244 132.751 131.878 132.868 131.599 133.103C131.32 133.338 131.155 133.653 131.104 134.049H130.125Z" fill="#737B8B"/>
<path opacity="0.5" d="M178.019 135.941C178.019 134.68 178.225 133.697 178.635 132.993C179.046 132.282 179.765 131.926 180.791 131.926C181.811 131.926 182.526 132.282 182.936 132.993C183.347 133.697 183.552 134.68 183.552 135.941C183.552 137.224 183.347 138.222 182.936 138.933C182.526 139.644 181.811 140 180.791 140C179.765 140 179.046 139.644 178.635 138.933C178.225 138.222 178.019 137.224 178.019 135.941ZM182.562 135.941C182.562 135.303 182.518 134.764 182.43 134.324C182.35 133.877 182.177 133.517 181.913 133.246C181.657 132.975 181.283 132.839 180.791 132.839C180.293 132.839 179.911 132.975 179.647 133.246C179.391 133.517 179.218 133.877 179.13 134.324C179.05 134.764 179.009 135.303 179.009 135.941C179.009 136.601 179.05 137.155 179.13 137.602C179.218 138.049 179.391 138.409 179.647 138.68C179.911 138.951 180.293 139.087 180.791 139.087C181.283 139.087 181.657 138.951 181.913 138.68C182.177 138.409 182.35 138.049 182.43 137.602C182.518 137.155 182.562 136.601 182.562 135.941ZM185.185 138.229V137.47L189.046 132.124H190.245V137.36H191.345V138.229H190.245V140H189.255V138.229H185.185ZM189.299 133.169L186.34 137.36H189.299V133.169Z" fill="#737B8B"/>
<path opacity="0.5" d="M233.025 135.941C233.025 134.68 233.23 133.697 233.641 132.993C234.051 132.282 234.77 131.926 235.797 131.926C236.816 131.926 237.531 132.282 237.942 132.993C238.352 133.697 238.558 134.68 238.558 135.941C238.558 137.224 238.352 138.222 237.942 138.933C237.531 139.644 236.816 140 235.797 140C234.77 140 234.051 139.644 233.641 138.933C233.23 138.222 233.025 137.224 233.025 135.941ZM237.568 135.941C237.568 135.303 237.524 134.764 237.436 134.324C237.355 133.877 237.183 133.517 236.919 133.246C236.662 132.975 236.288 132.839 235.797 132.839C235.298 132.839 234.917 132.975 234.653 133.246C234.396 133.517 234.224 133.877 234.136 134.324C234.055 134.764 234.015 135.303 234.015 135.941C234.015 136.601 234.055 137.155 234.136 137.602C234.224 138.049 234.396 138.409 234.653 138.68C234.917 138.951 235.298 139.087 235.797 139.087C236.288 139.087 236.662 138.951 236.919 138.68C237.183 138.409 237.355 138.049 237.436 137.602C237.524 137.155 237.568 136.601 237.568 135.941ZM245.503 132.916H241.642V135.424C241.811 135.189 242.06 134.999 242.39 134.852C242.72 134.698 243.076 134.621 243.457 134.621C244.066 134.621 244.561 134.749 244.942 135.006C245.323 135.255 245.595 135.582 245.756 135.985C245.925 136.381 246.009 136.803 246.009 137.25C246.009 137.778 245.91 138.251 245.712 138.669C245.514 139.087 245.21 139.417 244.799 139.659C244.396 139.901 243.893 140.022 243.292 140.022C242.522 140.022 241.899 139.824 241.422 139.428C240.945 139.032 240.656 138.504 240.553 137.844H241.532C241.627 138.262 241.829 138.588 242.137 138.823C242.445 139.058 242.834 139.175 243.303 139.175C243.882 139.175 244.319 139.003 244.612 138.658C244.905 138.306 245.052 137.844 245.052 137.272C245.052 136.7 244.905 136.26 244.612 135.952C244.319 135.637 243.886 135.479 243.314 135.479C242.925 135.479 242.584 135.574 242.291 135.765C242.005 135.948 241.796 136.201 241.664 136.524H240.718V132.036H245.503V132.916Z" fill="#737B8B"/>
<path opacity="0.5" d="M287.987 135.941C287.987 134.68 288.193 133.697 288.603 132.993C289.014 132.282 289.733 131.926 290.759 131.926C291.779 131.926 292.494 132.282 292.904 132.993C293.315 133.697 293.52 134.68 293.52 135.941C293.52 137.224 293.315 138.222 292.904 138.933C292.494 139.644 291.779 140 290.759 140C289.733 140 289.014 139.644 288.603 138.933C288.193 138.222 287.987 137.224 287.987 135.941ZM292.53 135.941C292.53 135.303 292.486 134.764 292.398 134.324C292.318 133.877 292.145 133.517 291.881 133.246C291.625 132.975 291.251 132.839 290.759 132.839C290.261 132.839 289.879 132.975 289.615 133.246C289.359 133.517 289.186 133.877 289.098 134.324C289.018 134.764 288.977 135.303 288.977 135.941C288.977 136.601 289.018 137.155 289.098 137.602C289.186 138.049 289.359 138.409 289.615 138.68C289.879 138.951 290.261 139.087 290.759 139.087C291.251 139.087 291.625 138.951 291.881 138.68C292.145 138.409 292.318 138.049 292.398 137.602C292.486 137.155 292.53 136.601 292.53 135.941ZM299.827 133.939C299.666 133.125 299.164 132.718 298.32 132.718C297.668 132.718 297.18 132.971 296.857 133.477C296.535 133.976 296.377 134.801 296.384 135.952C296.553 135.571 296.832 135.274 297.22 135.061C297.616 134.841 298.056 134.731 298.54 134.731C299.296 134.731 299.897 134.966 300.344 135.435C300.799 135.904 301.026 136.553 301.026 137.382C301.026 137.881 300.927 138.328 300.729 138.724C300.539 139.12 300.245 139.435 299.849 139.67C299.461 139.905 298.988 140.022 298.43 140.022C297.675 140.022 297.085 139.853 296.659 139.516C296.234 139.179 295.937 138.713 295.768 138.119C295.6 137.525 295.515 136.792 295.515 135.919C295.515 133.228 296.454 131.882 298.331 131.882C299.05 131.882 299.615 132.076 300.025 132.465C300.436 132.854 300.678 133.345 300.751 133.939H299.827ZM298.331 135.578C298.016 135.578 297.719 135.644 297.44 135.776C297.162 135.901 296.934 136.095 296.758 136.359C296.59 136.616 296.505 136.931 296.505 137.305C296.505 137.862 296.667 138.317 296.989 138.669C297.312 139.014 297.774 139.186 298.375 139.186C298.889 139.186 299.296 139.028 299.596 138.713C299.904 138.39 300.058 137.958 300.058 137.415C300.058 136.843 299.912 136.396 299.618 136.073C299.325 135.743 298.896 135.578 298.331 135.578Z" fill="#737B8B"/>
</svg>
